<svg xmlns="http://www.w3.org/2000/svg" xmlns:xlink="http://www.w3.org/1999/xlink" width="828" height="444.264" viewBox="0 0 828 444.264">
  <defs>
    <clipPath id="clip-path">
      <path id="Path_171" data-name="Path 171" d="M0,0H828V444.264H0Z" fill="rgba(0,0,0,0.09)"/>
    </clipPath>
  </defs>
  <g id="Group_156" data-name="Group 156" transform="translate(-124 -3947.965)">
    <g id="Mask_Group_2" data-name="Mask Group 2" transform="translate(124 3947.965)" clip-path="url(#clip-path)">
      <g id="undraw_Build_wireframe_re_ln7g_2_" data-name="undraw_Build_wireframe_re_ln7g (2)" transform="translate(387 -19.526)">
        <path id="Path_206" data-name="Path 206" d="M328.384,517.17c-9.913-6.657-19.2-21.868-10.977-34.575,4.079-6.3,11.2-8.633,17.9-9.319,9.272-.949,18.651.992,27.275,3.926,9.947,3.384,19.284,8.3,28.534,13.249,9.132,4.889,18.311,9.658,27.688,14.043a480.923,480.923,0,0,0,56.913,22.312,477.228,477.228,0,0,0,58.11,14.7q14.637,2.732,29.461,4.5a228.251,228.251,0,0,0,27.873,2.058c12.319-.052,32.879-1.487,37.405-17.249,2.4-8.358-.848-17.051-4.91-23.81-4.911-8.172-11.651-14.92-18.265-21.5q-46.143-45.9-92.508-91.564c-7.2-7.123-14.49-14.168-21.181-21.835-6.264-7.177-12.232-15-15.988-24.069-3.28-7.918-5.2-17.578-1.653-26.15,2.944-7.109,9.277-11.644,15.9-14.295,16.4-6.563,35.156-4.493,51.433-.889,20.223,4.478,39.556,12.048,59.751,16.633,16.307,3.7,34.509,5.662,51.126.085,6.371-2.139,12.627-5.651,16.9-11.349a27.561,27.561,0,0,0,4.995-19.352c-.785-8-4.119-15.437-8.109-22.016a96.837,96.837,0,0,0-17.26-20.692c-14.323-13.251-30.763-23.659-46.1-35.526-7.522-5.82-15.036-11.915-21.25-19.291-5.265-6.25-10.633-14-11.5-22.743-1.8-18.043,20.014-19.857,31.716-19.2a169.545,169.545,0,0,1,23.714,3.361c1.672.334,2.014-2.5.349-2.83a162.818,162.818,0,0,0-24.944-3.422c-7.093-.3-14.647-.01-21.453,2.914-5.716,2.455-10.541,7.232-11.824,13.763-1.518,7.727,1.967,15.5,5.707,21.6,4.946,8.073,11.6,14.682,18.614,20.691,7.389,6.329,15.216,12.07,23.058,17.765,15.67,11.38,32.317,22.57,44.279,38.434,8.368,11.1,18.365,29.68,8.533,44.033-4.365,6.371-11.446,9.919-18.353,11.865a78.726,78.726,0,0,1-25.487,2.351c-39.435-2.062-74.625-25.351-114.781-22.915-13.653.828-31.5,5.074-37.6,20.344-3.167,7.932-2.146,16.741.386,24.377,3.033,9.146,8.459,17.153,14.343,24.372a276.782,276.782,0,0,0,20.117,21.452q11.6,11.492,23.206,22.969l46.953,46.472,23.329,23.09c7.12,7.047,14.519,14.029,20.185,22.5,4.639,6.939,9.323,17.18,5.132,25.988-3.328,6.995-11.159,9.921-17.818,11.322-8.622,1.814-17.471,1.709-26.089,1.128-9.94-.67-19.841-1.873-29.667-3.315a464.009,464.009,0,0,1-59.91-12.928A482.36,482.36,0,0,1,433.7,508.038q-14.3-6.138-28.178-13.208c-9.538-4.861-18.826-10.237-28.511-14.8-8.761-4.124-17.9-7.532-27.527-9.037-8.037-1.257-16.992-1.4-24.828,2.089a21.559,21.559,0,0,0-11.8,13,26.588,26.588,0,0,0,.913,17.81,34.263,34.263,0,0,0,12.948,15.588c1.416.951,3.084-1.362,1.662-2.318Z" transform="translate(-223.923 -134.969)" fill="#f2f2f2"/>
        <path id="Path_207" data-name="Path 207" d="M926.3,202.8H708.79V129.1H926.3Z" transform="translate(-334.052 -129.096)" fill="#fff"/>
        <rect id="Rectangle_459" data-name="Rectangle 459" width="209.562" height="141.381" transform="translate(242.533 230.995)" fill="#fff"/>
        <path id="Path_208" data-name="Path 208" d="M735.848,590.582H524.84V447.756H735.848Zm-209.562-1.445H734.4V449.2H526.285Z" transform="translate(-283.03 -217.483)" fill="#3f3d56"/>
        <path id="Path_209" data-name="Path 209" d="M550.347,563.45H724.49V464.277H550.347Z" transform="translate(-290.104 -222.066)" fill="#e6e6e6"/>
        <circle id="Ellipse_35" data-name="Ellipse 35" cx="17.454" cy="17.454" r="17.454" transform="translate(294.018 268.964)" fill="#ff6363"/>
        <path id="Path_210" data-name="Path 210" d="M663.993,572.4H578.371a1.746,1.746,0,0,1-.32-.025l40.5-70.144a2.835,2.835,0,0,1,4.936,0L650.66,549.3l1.3,2.252Z" transform="translate(-297.789 -232.192)" fill="#3f3d56"/>
        <path id="Path_211" data-name="Path 211" d="M495.546,461.92H466.312l14.351-20.845,1.033-1.5.517-.751,1.3,2.252Z" transform="translate(-129.341 -121.717)" opacity="0.2"/>
        <path id="Path_212" data-name="Path 212" d="M734.529,580.33H660.472l14.351-20.845,1.033-1.5,18.7-27.165a3.784,3.784,0,0,1,5.617-.336,3.382,3.382,0,0,1,.269.336Z" transform="translate(-320.65 -240.127)" fill="#3f3d56"/>
        <rect id="Rectangle_460" data-name="Rectangle 460" width="213.176" height="103.336" transform="translate(315.479 99.723)" fill="#fff"/>
        <circle id="Ellipse_36" data-name="Ellipse 36" cx="15.42" cy="15.42" r="15.42" transform="translate(334.691 118.505)" fill="#e6e6e6"/>
        <path id="Path_213" data-name="Path 213" d="M723,300.2a2.57,2.57,0,0,0,0,5.14H844.161a2.57,2.57,0,0,0,0-5.14Z" transform="translate(-337.282 -176.556)" fill="#e6e6e6"/>
        <path id="Path_214" data-name="Path 214" d="M723,321.539a2.57,2.57,0,0,0-.011,5.14h52.144a2.57,2.57,0,0,0,0-5.14Z" transform="translate(-337.28 -182.474)" fill="#e6e6e6"/>
        <path id="Path_215" data-name="Path 215" d="M656.982,355.654c-1.955,0-3.546,1.153-3.546,2.57s1.591,2.57,3.546,2.57H824.139c1.955,0,3.546-1.153,3.546-2.57s-1.591-2.57-3.546-2.57Z" transform="translate(-318.698 -191.937)" fill="#e6e6e6"/>
        <path id="Path_216" data-name="Path 216" d="M656.982,376.992c-1.955,0-3.546,1.153-3.546,2.57s1.591,2.57,3.546,2.57H824.139c1.955,0,3.546-1.153,3.546-2.57s-1.591-2.57-3.546-2.57Z" transform="translate(-318.698 -197.855)" fill="#e6e6e6"/>
        <path id="Path_217" data-name="Path 217" d="M841.3,371.768H623.786V264.1H841.3Zm-213.176-4.336h208.84v-99H628.122Z" transform="translate(-310.474 -166.541)" fill="#e6e6e6"/>
        <circle id="Ellipse_37" data-name="Ellipse 37" cx="15.42" cy="15.42" r="15.42" transform="translate(396.114 20.951)" fill="#e6e6e6"/>
        <path id="Path_218" data-name="Path 218" d="M808,165.2a2.57,2.57,0,0,0,0,5.14H929.161a2.57,2.57,0,0,0,0-5.14Z" transform="translate(-360.858 -139.11)" fill="#e6e6e6"/>
        <path id="Path_219" data-name="Path 219" d="M808,186.539a2.57,2.57,0,0,0-.011,5.14h52.144a2.57,2.57,0,0,0,0-5.14Z" transform="translate(-360.856 -145.029)" fill="#e6e6e6"/>
        <path id="Path_220" data-name="Path 220" d="M926.3,202.8H708.79V129.1H926.3Zm-213.176-4.336h208.84V133.432H713.126Z" transform="translate(-334.052 -129.096)" fill="#e6e6e6"/>
        <path id="Path_221" data-name="Path 221" d="M184.4,607.55h11.7l5.565-45.117H184.4Z" transform="translate(-51.147 -156.002)" fill="#ffb8b8"/>
        <path id="Path_222" data-name="Path 222" d="M0,0H36.761V14.2h-26A10.758,10.758,0,0,1,0,3.446V0Z" transform="translate(167.508 462.409) rotate(179.997)" fill="#2f2e41"/>
        <path id="Path_223" data-name="Path 223" d="M119.707,607.55h11.7l5.564-45.117H119.706Z" transform="translate(-33.203 -156.002)" fill="#ffb8b8"/>
        <path id="Path_224" data-name="Path 224" d="M0,0H36.762V14.2h-26A10.758,10.758,0,0,1,0,3.446V0Z" transform="translate(120.758 462.409) rotate(179.997)" fill="#2f2e41"/>
        <path id="Path_225" data-name="Path 225" d="M401.19,558.82a8.946,8.946,0,0,1,.771-13.7L396.95,525.3l11.3-5.983,6.684,28.09a8.995,8.995,0,0,1-13.746,11.41Z" transform="translate(-247.557 -237.333)" fill="#ffb8b8"/>
        <path id="Path_226" data-name="Path 226" d="M113.952,396.978l.954,66.786.954,87.776,20.99-1.909,10.495-121.168L160.7,549.631h21.669l2.182-122.123-7.632-26.714Z" transform="translate(-31.607 -110.11)" fill="#2f2e41"/>
        <path id="Path_227" data-name="Path 227" d="M338.086,487.616c-22.838,0-43.861-10.335-44.144-10.477l-.236-.118-1.917-45.994c-.556-1.625-11.5-33.7-13.353-43.891-1.878-10.328,25.339-19.392,28.644-20.452l.75-8.308,30.5-3.286,3.866,10.631,10.942,4.1a5.412,5.412,0,0,1,3.354,6.358l-6.081,24.731,11.962,81.821-.307.138A58.053,58.053,0,0,1,338.086,487.616Z" transform="translate(-214.659 -191.78)" fill="#ff6363"/>
        <path id="Path_228" data-name="Path 228" d="M390.284,498.623,379.7,455.05l-11.472-52.581,5.823-26.206h4.979c.091,0,9.138.135,11.086,11.822,1.887,11.32,7.576,47.345,7.633,47.708l9.616,61.54Z" transform="translate(-239.59 -197.653)" fill="#ff6363"/>
        <path id="Path_229" data-name="Path 229" d="M322.779,525.815a8.946,8.946,0,0,0-10.923-8.3l-11.831-16.673L288.14,505.56l17.038,23.311a8.995,8.995,0,0,0,17.6-3.056Z" transform="translate(-217.376 -232.208)" fill="#ffb8b8"/>
        <path id="Path_230" data-name="Path 230" d="M290.426,494.362l-35.8-46.441,13.413-42.156c.983-10.6,7.615-13.558,7.9-13.679l.43-.185,11.672,31.127-8.57,22.853,21.035,35.378Z" transform="translate(-208.081 -201.99)" fill="#ff6363"/>
        <circle id="Ellipse_38" data-name="Ellipse 38" cx="21.96" cy="21.96" r="21.96" transform="translate(79.813 127.353) rotate(-28.663)" fill="#ffb8b8"/>
        <path id="Path_231" data-name="Path 231" d="M347.429,294.708c-2.273,2.69-6.12,3.449-9.669,3.761-7.207.632-17.687-.393-24.731-2.019-.5,4.872.868,10.126-2,14.134a65.611,65.611,0,0,1-2.331-14.874,14.237,14.237,0,0,1,.824-6.371,5.859,5.859,0,0,1,4.991-3.68,12.509,12.509,0,0,0-5.58-2.386l6.973-3.5-1.791-1.838,12.624-.772-3.656-2.323a79.284,79.284,0,0,1,16.61-.524c2.572.189,5.262.552,7.346,2.042s3.289,4.453,1.995,6.641a9.643,9.643,0,0,1,7.349,5.831,15.567,15.567,0,0,1,.558,7.483,53.04,53.04,0,0,1-2.781,11.765" transform="translate(-223.068 -169.315)" fill="#2f2e41"/>
        <path id="Path_232" data-name="Path 232" d="M466.258,770.349H190.937a.723.723,0,1,1,0-1.445H466.258a.723.723,0,1,1,0,1.445Z" transform="translate(-190.214 -306.56)" fill="#ccc"/>
      </g>
    </g>
    <text id="GALLERY_" data-name="GALLERY " transform="translate(200 4135)" fill="#c7493a" font-size="87" font-family="SourceSansPro-Semibold, Source Sans Pro" font-weight="600"><tspan x="0" y="0">GALLERY </tspan></text>
    <text id="Have_a_look_at_our_few_event_Labs._" data-name="Have a look at our 
few event &amp; Labs. " transform="translate(200 4204)" fill="#707070" font-size="33" font-family="SourceSansPro-Semibold, Source Sans Pro" font-weight="600"><tspan x="0" y="0">Have a look at our </tspan><tspan x="0" y="47">few event &amp; Labs. </tspan></text>
  </g>
</svg>
