<svg xmlns="http://www.w3.org/2000/svg" width="174.416" height="173.842" viewBox="0 0 174.416 173.842"><path d="M87.208.06a12.667,12.667,0,0,0-3.9,24.716L78.72,43.519H17.849A17.849,17.849,0,0,0,0,61.367v94.686A17.849,17.849,0,0,0,17.849,173.9H156.568a17.852,17.852,0,0,0,17.849-17.849V61.367a17.852,17.852,0,0,0-17.849-17.849H95.5L91.023,24.805A12.667,12.667,0,0,0,87.2.06ZM28.582,57.043H145.848a14.493,14.493,0,0,1,14.491,14.491v73.524a14.491,14.491,0,0,1-14.491,14.491H28.582a14.491,14.491,0,0,1-14.491-14.491V71.534A14.493,14.493,0,0,1,28.582,57.043Zm23.648,16.8a33.248,33.248,0,1,0,33.248,33.248A33.248,33.248,0,0,0,52.23,73.845Zm70.806,0a33.248,33.248,0,1,0,33.248,33.248,33.248,33.248,0,0,0-33.248-33.248ZM52.23,81.621A25.477,25.477,0,1,1,26.751,107.1,25.474,25.474,0,0,1,52.23,81.621Zm70.806,0A25.477,25.477,0,1,1,97.557,107.1a25.474,25.474,0,0,1,25.479-25.477ZM52.23,93.707A13.394,13.394,0,1,0,65.624,107.1,13.394,13.394,0,0,0,52.23,93.707Zm70.806,0A13.394,13.394,0,1,0,136.43,107.1a13.394,13.394,0,0,0-13.394-13.394ZM72.7,140.945v15.69h5.131v-15.69H72.7Zm7.827,0v15.69h5.123v-15.69Zm7.82,0v15.69h5.131v-15.69Zm7.827,0v15.69H101.3v-15.69Zm7.827.218v15.261a7.849,7.849,0,0,0,6.025-7.623v-.007A7.849,7.849,0,0,0,104,141.163Zm-34,.2a7.849,7.849,0,0,0-5.312,7.42v.007A7.843,7.843,0,0,0,70,156.213V141.366Z" transform="translate(0 -0.06)" fill="#c7493a"/></svg>