<svg xmlns="http://www.w3.org/2000/svg" width="174.416" height="139.533" viewBox="0 0 174.416 139.533"><path d="M56.685,95.929a6.235,6.235,0,0,0-1.924.3A35.95,35.95,0,0,1,43.6,98.109a35.981,35.981,0,0,1-11.16-1.883,6.218,6.218,0,0,0-1.921-.3A30.525,30.525,0,0,0,0,126.62a13.048,13.048,0,0,0,13.081,12.912H74.127A13.048,13.048,0,0,0,87.208,126.62,30.525,30.525,0,0,0,56.685,95.929ZM43.6,87.208A26.162,26.162,0,1,0,17.442,61.046,26.162,26.162,0,0,0,43.6,87.208ZM161.335,0H56.685A13.318,13.318,0,0,0,43.6,13.515V26.162a34.487,34.487,0,0,1,17.442,4.851V17.442h95.929V95.929H139.533V78.487H104.65V95.929H83.873A34.733,34.733,0,0,1,94.689,113.37h66.646a13.318,13.318,0,0,0,13.081-13.515V13.515A13.318,13.318,0,0,0,161.335,0Z" transform="translate(0)" fill="#c7493a"/></svg>