<svg xmlns="http://www.w3.org/2000/svg" width="174.416" height="110.992" viewBox="0 0 174.416 110.992"><path d="M124.384,70.924a95.03,95.03,0,0,0-35.676,7.928c-11.337-5.312-26.162-7.928-35.676-7.928C35.828,70.924,1.5,79.486,1.5,96.69v21.8H175.916V96.69C175.916,79.486,141.588,70.924,124.384,70.924ZM92.672,106.6H13.392V96.69c0-4.281,20.3-13.874,39.64-13.874s39.64,9.593,39.64,13.874Zm71.352,0h-59.46V96.69c0-3.647-1.586-6.818-4.123-9.672a76.485,76.485,0,0,1,23.943-4.2c19.344,0,39.64,9.593,39.64,13.874ZM53.032,63A27.748,27.748,0,1,0,25.284,35.248,27.779,27.779,0,0,0,53.032,63Zm0-43.6A15.856,15.856,0,1,1,37.176,35.248,15.9,15.9,0,0,1,53.032,19.392ZM124.384,63A27.748,27.748,0,1,0,96.636,35.248,27.779,27.779,0,0,0,124.384,63Zm0-43.6a15.856,15.856,0,1,1-15.856,15.856A15.9,15.9,0,0,1,124.384,19.392Z" transform="translate(-1.5 -7.5)" fill="#c7493a"/></svg>