<svg xmlns="http://www.w3.org/2000/svg" width="52.819" height="49.659" viewBox="0 0 52.819 49.659"><g transform="translate(-0.002 -1.58)"><path d="M51.82,19.074A23.4,23.4,0,0,0,42.212,5.885c-4.92-3.2-11.352-4.168-17.106-4.3C17.071,1.4,6.893,4.49,2.94,12.152c-.329.637.64,1.184.969.547,2.8-5.43,9.491-8.566,15.263-9.594A36.855,36.855,0,0,1,38.045,5.06C44.179,7.347,48.438,12.6,50.531,18.671c2.33,6.758,1.04,13.488-2.679,19.424C40.174,50.347,21.33,54.324,9.87,45.038,4.62,40.784,1.2,35.093,1.13,28.286A24.49,24.49,0,0,1,3.876,16.274a11.6,11.6,0,0,1,2.4-2.867c.014-.219.03-.436.045-.652a1.28,1.28,0,0,1-.25-.475c-.005-.021,0-.037-.009-.059a21.612,21.612,0,0,0-1.65,1.529c-2.291,2.371-3.194,5.66-3.832,8.8C-.692,28.791.061,34.625,3.639,39.9,6.7,44.411,11.426,48.612,16.77,50.079a28.262,28.262,0,0,0,19.2-1.108c2.749-1.23,5.729-2.438,8.039-4.424a30.973,30.973,0,0,0,6.679-9.156C53.305,30.4,53.3,24.4,51.82,19.074Z" fill="#fff"/><path d="M17.736,31.85c.1,1.15.121,3.08,1.325,3.6a.923.923,0,0,0,.167.174c1.2.9,2.868-.5,3.876-1.109,2.8-1.674,12.586-8.037,14.039-10.277a.469.469,0,0,0-.046-.609.523.523,0,0,0-.258-.428c-1.622-.992-8.87-4.3-10.89-5.045-1.044-.389-5.593-2.34-6.212-2.355-2.373-1.525-2.021,5.525-2.033,6.152A91.556,91.556,0,0,0,17.736,31.85Zm3.224-6.817a.518.518,0,0,0-.217.182c0-.3-.009-.6-.011-.891.1.055.2.1.3.154C21.009,24.66,20.984,24.846,20.96,25.033Zm.207,4.662a5.217,5.217,0,0,1,.257-.748c1.583-.371,3.088-1.146,4.634-1.645.754-.207,1.509-.414,2.259-.633C25.981,27.764,23.595,28.74,21.167,29.695Zm3.42-3.933c-.18.082-.362.162-.539.25a3.529,3.529,0,0,0-.483-.244C23.905,25.758,24.246,25.754,24.587,25.762Zm-.479-1.477a.73.73,0,0,1,.074-.037,9.92,9.92,0,0,0,1.944.24c.459.055.918.113,1.378.166-.044.016-.088.029-.133.045C26.4,24.6,25.23,24.488,24.108,24.285Zm4.766-1.179c-.761-.27-1.523-.549-2.291-.854a27.1,27.1,0,0,0-3.846-1.17,3.048,3.048,0,0,1-1.052-.465A25.386,25.386,0,0,1,28.874,23.106ZM22.9,22.258q-1.125-.108-2.278-.1c-.026-.3-.056-.592-.085-.889A6.907,6.907,0,0,0,22.9,22.258Z" fill="#fff"/></g></svg>