<svg xmlns="http://www.w3.org/2000/svg" width="460.98" height="626.12" viewBox="0 0 460.98 626.12"><g transform="translate(-1402.51 -247.94)"><g transform="translate(1072)"><path d="M554.7,645.73l5.35.01,65.99.16A12.929,12.929,0,0,0,639,633.01l.2-77.11a12.923,12.923,0,0,0-12.89-12.96l-131.7-.33a12.936,12.936,0,0,0-12.95,12.9l-.21,77.11a12.916,12.916,0,0,0,12.89,12.96l12.08.03,80.72-80.74a17.112,17.112,0,0,1,24.21,24.19Z" fill="#aad4c8"/><path d="M432.7,493.96a14.4,14.4,0,0,0-14.46,14.4l-.45,178.77a14.425,14.425,0,0,0,14.4,14.47l255.77.63a14.425,14.425,0,0,0,14.49-14.41l.45-178.76a14.457,14.457,0,0,0-14.42-14.48ZM639,633a12.916,12.916,0,0,1-12.96,12.89l-65.99-.16-5.35-.01,56.66-56.67a17.112,17.112,0,0,0-24.21-24.19L506.43,645.6l-12.08-.03a12.91,12.91,0,0,1-12.89-12.96l.21-77.11a12.949,12.949,0,0,1,12.95-12.9l131.7.33a12.916,12.916,0,0,1,12.89,12.96Zm28.06-63.54a9.6,9.6,0,1,1,9.6-9.61A9.6,9.6,0,0,1,667.06,569.46Zm0-26.32a9.6,9.6,0,1,1,9.6-9.61A9.6,9.6,0,0,1,667.06,543.14Z" fill="#616e7d"/><path d="M364.38,494.46a6.184,6.184,0,0,0-6.19,6.17l-.43,174.62a6.188,6.188,0,0,0,6.17,6.21l35.76.08a6.152,6.152,0,0,0,6.19-6.17l.45-174.62a6.22,6.22,0,0,0-6.19-6.22Z" fill="#616e7d"/><path d="M382.29,718.5a22.863,22.863,0,0,1,22.78,22.89,14.435,14.435,0,1,0,28.87.06,51.715,51.715,0,1,0-51.83,51.59,14.44,14.44,0,0,0,.07-28.88,22.83,22.83,0,1,1,.11-45.66Z" fill="#616e7d"/><path d="M721.94,492.59a6.216,6.216,0,0,0-6.22,6.17L715.3,673.4a6.223,6.223,0,0,0,6.18,6.21l35.77.08a6.175,6.175,0,0,0,6.19-6.16l.41-174.63a6.133,6.133,0,0,0-6.16-6.2Z" fill="#616e7d"/><path d="M739.7,765.07a14.435,14.435,0,0,0-.08,28.87,51.72,51.72,0,1,0-51.57-51.84,14.435,14.435,0,1,0,28.87.05,22.84,22.84,0,1,1,22.78,22.92Z" fill="#616e7d"/><path d="M481.9,715.47a6.188,6.188,0,0,0-6.19,6.16l-.2,81.15a6.2,6.2,0,0,0,6.17,6.2l50.89.12a6.165,6.165,0,0,0,6.19-6.17l.2-81.13a6.186,6.186,0,0,0-6.17-6.2Z" fill="#616e7d"/><path d="M589.86,715.73a6.159,6.159,0,0,0-6.19,6.17l-.22,81.13a6.19,6.19,0,0,0,6.19,6.2l50.87.13a6.2,6.2,0,0,0,6.21-6.18l.18-81.14a6.173,6.173,0,0,0-6.18-6.19Z" fill="#616e7d"/><path d="M457.31,824.04c-3.4-.01-6.19,4.32-6.19,9.67l-.08,30.14c-.02,5.34,2.75,9.69,6.15,9.7l78.38.19c3.44,0,6.22-4.32,6.23-9.66l.06-30.14c.02-5.34-2.75-9.69-6.16-9.7Z" fill="#616e7d"/><path d="M585.89,824.36c-3.42-.01-6.19,4.32-6.21,9.68l-.06,30.13c-.02,5.34,2.73,9.7,6.16,9.7l78.37.19c3.43.01,6.2-4.33,6.22-9.68l.08-30.13c.02-5.36-2.75-9.69-6.16-9.7Z" fill="#616e7d"/><path d="M501.5,247.96l-5.5-.02a6.2,6.2,0,0,0-6.21,6.17l-.08,31.62-33.35-.08h-2.38a16.252,16.252,0,0,0-16.28,16.2l-.39,162.81a16.207,16.207,0,0,0,16.18,16.27l217.96.53a16.222,16.222,0,0,0,16.26-16.2l.41-162.81a16.235,16.235,0,0,0-16.2-16.26l-6.81-.02-28.93-.08.08-31.62a6.2,6.2,0,0,0-6.17-6.2l-5.5-.02a6.193,6.193,0,0,0-6.22,6.18l-.08,31.62-110.69-.28.08-31.61A6.214,6.214,0,0,0,501.5,247.96Zm-17.87,96.28a21.01,21.01,0,1,1-21,21.01A21.006,21.006,0,0,1,483.63,344.24Zm157.28,0a21.01,21.01,0,1,1-21,21.01A21.01,21.01,0,0,1,640.91,344.24Zm40.24,73.24v6H445.8v-6Z" fill="#616e7d"/><path d="M386.84,351.16l-.16,63.94a6.2,6.2,0,0,0,6.17,6.21l24.08.06V345.06l-23.88-.07A6.176,6.176,0,0,0,386.84,351.16Z" fill="#616e7d"/><path d="M416.93,345.06v76.31l6.87.02a6.178,6.178,0,0,0,6.19-6.17l.17-63.95a6.167,6.167,0,0,0-6.18-6.19Z" fill="#aad4c8"/><path d="M710.08,345v76.31l23.88.07a6.2,6.2,0,0,0,6.21-6.17l.17-63.95a6.208,6.208,0,0,0-6.18-6.2Z" fill="#616e7d"/><path d="M697.02,351.16l-.16,63.95a6.167,6.167,0,0,0,6.18,6.19l7.05.01V345l-6.87-.02A6.176,6.176,0,0,0,697.02,351.16Z" fill="#aad4c8"/><path d="M462.63,365.25a21,21,0,1,0,21-21.01A20.993,20.993,0,0,0,462.63,365.25Z" fill="#fff"/><path d="M619.91,365.25a21.01,21.01,0,1,0,21-21.01A21.006,21.006,0,0,0,619.91,365.25Z" fill="#fff"/><rect width="235.35" height="6" transform="translate(445.8 417.48)" fill="#fff"/><path d="M657.46,533.52a9.6,9.6,0,1,0,9.6-9.6A9.6,9.6,0,0,0,657.46,533.52Z" fill="#82bfab"/><path d="M657.46,559.85a9.6,9.6,0,1,0,9.6-9.6A9.6,9.6,0,0,0,657.46,559.85Z" fill="#82bfab"/></g></g></svg>