<svg xmlns="http://www.w3.org/2000/svg" width="175" height="156.896" viewBox="0 0 175 156.896"><g transform="translate(-1 -3)"><g transform="translate(1 3)"><g transform="translate(132.759 108.621)"><path d="M62.224,57.207H26.017A3.018,3.018,0,0,1,23,54.19V24.017A3.018,3.018,0,0,1,26.017,21H62.224a3.018,3.018,0,0,1,3.017,3.017V54.19A3.018,3.018,0,0,1,62.224,57.207Zm-33.19-6.034H59.207V27.034H29.034Z" transform="translate(-23 -21)" fill="#c7493a"/></g><g transform="translate(66.379 108.621)"><path d="M51.224,57.207H15.017A3.018,3.018,0,0,1,12,54.19V24.017A3.018,3.018,0,0,1,15.017,21H51.224a3.018,3.018,0,0,1,3.017,3.017V54.19A3.018,3.018,0,0,1,51.224,57.207Zm-33.19-6.034H48.207V27.034H18.034Z" transform="translate(-12 -21)" fill="#c7493a"/></g><g transform="translate(132.759 150.862)"><path d="M62.224,34.034H26.017a3.017,3.017,0,1,1,0-6.034H62.224a3.017,3.017,0,1,1,0,6.034Z" transform="translate(-23 -28)" fill="#c7493a"/></g><g transform="translate(66.379 150.862)"><path d="M51.224,34.034H15.017a3.017,3.017,0,1,1,0-6.034H51.224a3.017,3.017,0,0,1,0,6.034Z" transform="translate(-12 -28)" fill="#c7493a"/></g><g transform="translate(0 150.862)"><path d="M40.224,34.034H4.017a3.017,3.017,0,1,1,0-6.034H40.224a3.017,3.017,0,1,1,0,6.034Z" transform="translate(-1 -28)" fill="#c7493a"/></g><g transform="translate(0 108.621)"><path d="M40.224,57.207H4.017A3.018,3.018,0,0,1,1,54.19V24.017A3.018,3.018,0,0,1,4.017,21H40.224a3.018,3.018,0,0,1,3.017,3.017V54.19A3.018,3.018,0,0,1,40.224,57.207ZM7.034,51.172H37.207V27.034H7.034Z" transform="translate(-1 -21)" fill="#c7493a"/></g><g transform="translate(18.103)"><path d="M139.776,57.31H7.017A3.018,3.018,0,0,1,4,54.293V6.017A3.018,3.018,0,0,1,7.017,3H139.776a3.018,3.018,0,0,1,3.017,3.017V54.293A3.018,3.018,0,0,1,139.776,57.31ZM10.034,51.276H136.759V9.034H10.034Z" transform="translate(-4 -3)" fill="#c7493a"/></g><path d="M18.017,35.138A3.018,3.018,0,0,1,15,32.121v-18.1a3.017,3.017,0,0,1,6.034,0v18.1A3.018,3.018,0,0,1,18.017,35.138Z" transform="translate(69.483 37.276)" fill="#c7493a"/><path d="M18.017,40.138A3.018,3.018,0,0,1,15,37.121v-18.1a3.017,3.017,0,0,1,6.034,0v18.1A3.018,3.018,0,0,1,18.017,40.138Z" transform="translate(69.483 62.448)" fill="#c7493a"/><path d="M139.776,40.138a3.018,3.018,0,0,1-3.017-3.017V22.034H10.034V37.121a3.017,3.017,0,0,1-6.034,0v-18.1A3.018,3.018,0,0,1,7.017,16H139.776a3.018,3.018,0,0,1,3.017,3.017v18.1A3.018,3.018,0,0,1,139.776,40.138Z" transform="translate(14.103 62.448)" fill="#c7493a"/></g><g transform="translate(43.241 33.172)"><path d="M95.5,14.034H11.017a3.017,3.017,0,1,1,0-6.034H95.5a3.017,3.017,0,1,1,0,6.034Z" transform="translate(-8 -8)" fill="#c7493a"/></g><g transform="translate(43.241 21.103)"><path d="M95.5,12.034H11.017a3.017,3.017,0,1,1,0-6.034H95.5a3.017,3.017,0,1,1,0,6.034Z" transform="translate(-8 -6)" fill="#c7493a"/></g></g></svg>