<svg xmlns="http://www.w3.org/2000/svg" width="709" height="323.114" viewBox="0 0 709 323.114"><g transform="translate(-0.001)"><circle cx="31.785" cy="31.785" r="31.785" transform="translate(620.039 119.037)" fill="#f2f2f2"/><circle cx="8.365" cy="8.365" r="8.365" transform="translate(643.46 142.457)" fill="#e6e6e6"/><path d="M797.672,365.85c3.523,2.874,4.6,7.4,3.942,11.779a20.454,20.454,0,0,1-7.021,12.28c-4.19,3.724-9.3,6.241-14.232,8.818a103.513,103.513,0,0,0-13.028,7.908,100.966,100.966,0,0,0-34.7,46.256c-6.846,18.285-8.683,39.039-3.481,57.99,2.574,9.376,7.78,19.492,17.48,23.02,7.732,2.812,18.288,1,22.225-6.968,4.229-8.56-1.671-18.182-9.272-22.432-9.852-5.509-21.62-1.483-30.482,4.093-9.756,6.139-17.6,14.948-27.783,20.45A34.912,34.912,0,0,1,686.4,533.4a37.38,37.38,0,0,1-14.144-2.185,47.906,47.906,0,0,1-23.138-17.96c-6.469-9.4-9.365-20.932-9.893-32.225-1.182-25.266,8.8-48.9,16.807-72.335a221,221,0,0,0,9.635-37.523,194.4,194.4,0,0,0,2.129-38.8c-.53-11.471-1.661-23.466-6.724-33.943-4.452-9.212-12.588-16.752-22.874-18.653a22.816,22.816,0,0,0-13.751,1.58c-1.467.669-.193,2.833,1.267,2.167,9.1-4.153,19.862-.112,26.586,6.593,7.851,7.83,10.735,19.392,12.015,30.061a188.7,188.7,0,0,1-6.665,75.276c-6.982,23.715-17.964,46.441-20.5,71.288-1.156,11.338-.562,23.059,3.062,33.931A53,53,0,0,0,657,525.4c7.4,5.979,16.495,10.053,26.073,10.507,10.752.509,20.181-4.284,28.523-10.661,8.934-6.829,17.155-15.256,27.977-19.085,4.934-1.746,10.554-2.56,15.62-.88a19.6,19.6,0,0,1,10.416,8.375c2.2,3.659,3.012,8.233,1,12.163-1.888,3.7-5.573,5.833-9.561,6.564a18.552,18.552,0,0,1-12.316-2.093c-4.37-2.5-7.567-6.684-9.807-11.109-4.467-8.824-5.968-19.328-6.2-29.123a96.431,96.431,0,0,1,3.637-28.317,99.92,99.92,0,0,1,30.187-48.12,88.63,88.63,0,0,1,11.689-8.606c4.5-2.774,9.3-4.99,13.891-7.607,4.514-2.575,8.963-5.652,12.072-9.89A21.275,21.275,0,0,0,804.3,375.01a14.024,14.024,0,0,0-4.855-10.934c-1.241-1.013-3.027.753-1.774,1.774Z" transform="translate(-147.376 -214.85)" fill="#ccc"/><path d="M500.936,512.052a73.057,73.057,0,0,0,37.2,11.66,17.433,17.433,0,0,1-.795,1.64,20.887,20.887,0,0,1-39.263-9.929v-3.371Z" transform="translate(-147.376 -214.85)" fill="#3f3d56"/><path d="M578.952,513.039v2.384a20.879,20.879,0,0,1-39.213,10,17.451,17.451,0,0,1-.828-1.681c.611.017,1.213.025,1.824.025A73.163,73.163,0,0,0,578.952,513.039Z" transform="translate(-147.376 -214.85)" fill="#3f3d56"/><path d="M607.091,260.947c-.627-.092-1.263-.151-1.9-.192a70.247,70.247,0,0,1,1.4,52.454c.636-.075,1.263-.176,1.891-.293a26.35,26.35,0,0,0-1.389-51.969Z" transform="translate(-147.376 -214.85)" fill="#3f3d56"/><path d="M476.277,260.755c-.636.042-1.271.1-1.9.192a26.35,26.35,0,0,0-1.389,51.969c.627.117,1.255.217,1.891.293a70.247,70.247,0,0,1,1.4-52.454Z" transform="translate(-147.376 -214.85)" fill="#3f3d56"/><path d="M607.091,260.947a71.933,71.933,0,1,0,5.579,27.77,71.933,71.933,0,0,0-5.579-27.77Zm-.5,52.262A70.247,70.247,0,1,1,611,288.718,70.247,70.247,0,0,1,606.589,313.209Z" transform="translate(-147.376 -214.85)" fill="#3f3d56"/><path d="M577.539,272.407H503.93a14.638,14.638,0,1,0,0,29.276h73.608a14.638,14.638,0,0,0,0-29.276Z" transform="translate(-147.376 -214.85)" fill="#3f3d56"/><path d="M540.734,374.873a75.279,75.279,0,0,0-3.4,150.479c.795.042,1.6.067,2.4.067.335.017.661.017,1,.017a75.281,75.281,0,0,0,0-150.563Zm38.218,138.166a73.162,73.162,0,0,1-38.218,10.723c-.611,0-1.213-.008-1.824-.025q-.389,0-.778-.025a73.651,73.651,0,1,1,40.819-10.673Z" transform="translate(-147.376 -214.85)" fill="#3f3d56"/><path d="M593.571,431.612h-32.9a8.644,8.644,0,0,1,0-17.287h32.9a8.644,8.644,0,1,1,0,17.287Z" transform="translate(-147.376 -214.85)" fill="#3f3d56"/><circle cx="4.387" cy="4.387" r="4.387" transform="translate(411.101 203.733)" fill="#f2f2f2"/><circle cx="4.387" cy="4.387" r="4.387" transform="translate(425.358 203.733)" fill="#f2f2f2"/><circle cx="4.387" cy="4.387" r="4.387" transform="translate(439.615 203.733)" fill="#ff6363"/><path d="M285.079,534.125c7.522-6.356,12.091-16.4,10.893-26.171s-8.619-18.76-18.246-20.836-20.6,3.67-23.524,13.074c-1.609-18.13-3.463-37.019-13.1-52.459-8.728-13.98-23.845-23.983-40.228-25.773s-33.633,4.969-43.85,17.9-12.719,31.73-5.563,46.576c5.272,10.936,14.984,19.076,25.16,25.7,32.465,21.125,72.738,28.263,111.058,22.623Z" transform="translate(-147.376 -214.85)" fill="#f2f2f2"/><path d="M173.222,427.3a265.683,265.683,0,0,1,37.025,36.766,269.475,269.475,0,0,1,29.2,43.214,268.371,268.371,0,0,1,12.5,26.475c.751,1.84-2.237,2.641-2.98.821a263.713,263.713,0,0,0-24.1-45.591,265.375,265.375,0,0,0-32.317-39.923,264.74,264.74,0,0,0-21.519-19.576c-1.543-1.256.655-3.431,2.185-2.185Z" transform="translate(-147.376 -214.85)" fill="#fff"/><circle cx="25.93" cy="25.93" r="25.93" transform="translate(109.222 3.346)" fill="#2f2e41"/><path d="M379.238,339.073a9.018,9.018,0,0,1-1.8,1.985,9.2,9.2,0,0,1-13.573-2.089,8.566,8.566,0,0,1-.449-.784l-40.861-3.942a15.067,15.067,0,0,1-13.289-12.128l-2.319-12.227,15.947-2.481,2.862,9.794,39.839,9.786a8.768,8.768,0,0,1,.979-.745,9.2,9.2,0,0,1,12.663,12.832Z" transform="translate(-147.376 -214.85)" fill="#ffb8b8"/><path d="M326.736,315.722l-17.813,4.812a3.768,3.768,0,0,1-4.615-2.652l-6.239-23.1a10.371,10.371,0,0,1,19.242-7.434l11.794,23.02a3.764,3.764,0,0,1-2.368,5.35Z" transform="translate(-147.376 -214.85)" fill="#2f2e41"/><path d="M169.042,312.947H179.3l4.879-39.555H169.039Z" fill="#ffb8b8"/><path d="M314.22,524.867H346.45v12.452H326.673a12.452,12.452,0,0,1-12.452-12.452h0Z" transform="translate(513.318 847.321) rotate(179.997)" fill="#2f2e41"/><path d="M77.642,302.953l9.594,3.622,18.538-35.28-14.16-5.346Z" fill="#ffb8b8"/><path d="M220.76,519.578H252.99V532.03H233.212a12.452,12.452,0,0,1-12.452-12.452h0Z" transform="translate(125.371 886.531) rotate(-159.315)" fill="#2f2e41"/><path d="M316.094,518.609a3.762,3.762,0,0,1-3.576-2.6l-26.155-80.772a1.255,1.255,0,0,0-2.329-.148l-36.248,77.123a3.768,3.768,0,0,1-4.6,1.97l-14.276-4.759a3.771,3.771,0,0,1-2.449-4.532l22.2-84.1a191.62,191.62,0,0,0,5.022-27.124,61.488,61.488,0,0,1,19.838-39.211,28.611,28.611,0,0,0,9.005-17.116l.06-.421,32.516,5.134,20.6,168.069a3.781,3.781,0,0,1-2.758,4.092l-15.871,4.273a3.747,3.747,0,0,1-.983.13Z" transform="translate(-147.376 -214.85)" fill="#2f2e41"/><circle cx="20.544" cy="20.544" r="20.544" transform="translate(124.909 13.994)" fill="#ffb8b8"/><path d="M313.088,345.629c-.064,0-.129,0-.194,0l-32.233-1.612a3.743,3.743,0,0,1-3.557-3.375L272.7,297.7a19.382,19.382,0,0,1,24.529-20.635h0a18.8,18.8,0,0,1,6.9,3.548c22.675,18.621,15.364,52.361,12.583,62.258a3.749,3.749,0,0,1-3.621,2.756Z" transform="translate(-147.376 -214.85)" fill="#ff6363"/><path d="M285.045,374.458a9.02,9.02,0,0,1-2.65-.4,9.2,9.2,0,0,1-5.777-12.457,8.565,8.565,0,0,1,.4-.809l-19.352-36.2a15.067,15.067,0,0,1,2.737-17.782l8.895-8.7,10.9,11.9-6.569,7.807,13.92,38.589a8.769,8.769,0,0,1,1.162.4,9.2,9.2,0,0,1-3.669,17.651Z" transform="translate(-147.376 -214.85)" fill="#ffb8b8"/><path d="M275.406,317.813l-13.874-12.165a3.768,3.768,0,0,1-.348-5.312l15.773-17.988a10.371,10.371,0,0,1,16.848,11.9l-12.633,22.571a3.764,3.764,0,0,1-5.766.992Z" transform="translate(-147.376 -214.85)" fill="#2f2e41"/><path d="M279.609,269.344c1.874.665,4.172,1.251,5.647-.128,1.44-1.346,1.178-3.807.329-5.62s-2.164-3.426-2.567-5.4c-.578-2.828.917-5.766,3.05-7.61a22.565,22.565,0,0,1,7.441-3.744l14.381-5.112c3.56-1.265,7.4-2.752,9.388-6.082,2.882-4.819.247-11.706-4.481-14.518s-10.7-2.288-15.8-.311c-2.821,1.093-5.505,2.6-8.423,3.37-5.758,1.519-12.306.156-17.366,3.4-4.4,2.826-6.448,8.593-6.3,13.989s2.135,10.535,4.231,15.47a28.767,28.767,0,0,0,4.69,8.241c2.112,2.335,5.163,3.969,8.212,3.539Z" transform="translate(-147.376 -214.85)" fill="#2f2e41"/><circle cx="16.729" cy="16.729" r="16.729" transform="translate(96.675)" fill="#2f2e41"/><path d="M396.464,328.148l-.3-.041,1.118-8.133a4.751,4.751,0,0,0-4.06-5.354l-17.231-2.369a4.751,4.751,0,0,0-5.354,4.06l-6.133,44.617a4.751,4.751,0,0,0,4.06,5.354l17.231,2.369a4.751,4.751,0,0,0,5.354-4.06l4.22-30.7.3.041Z" transform="translate(-147.376 -214.85)" fill="#3f3d56"/><path d="M392.684,317.007l-2.145-.295a1.608,1.608,0,0,1-1.777,1.992l-9.416-1.294a1.608,1.608,0,0,1-1.173-2.4l-2-.275a3.384,3.384,0,0,0-3.814,2.892l-5.842,42.5a3.384,3.384,0,0,0,2.892,3.814l16.514,2.27a3.385,3.385,0,0,0,3.814-2.892h0l5.842-42.5a3.385,3.385,0,0,0-2.892-3.814Z" transform="translate(-147.376 -214.85)" fill="#fff"/><circle cx="9.201" cy="9.201" r="9.201" transform="translate(224.394 119.037)" fill="#ff6363"/><path d="M380.059,346.6a.955.955,0,0,1-.574-.191l-.01-.008-2.162-1.656a.961.961,0,0,1,1.169-1.525l1.4,1.074,3.31-4.316a.961.961,0,0,1,1.347-.178l-.021.028.021-.028a.962.962,0,0,1,.178,1.347l-3.893,5.077a.961.961,0,0,1-.764.375Z" transform="translate(-147.376 -214.85)" fill="#fff"/><path d="M855.381,537.964H153.345a1,1,0,1,1,0-1.992H855.381a1,1,0,0,1,0,1.992Z" transform="translate(-147.376 -214.85)" fill="#ccc"/></g></svg>