<svg xmlns="http://www.w3.org/2000/svg" width="529.16" height="479.144" viewBox="0 0 529.16 479.144"><path d="M765.724,403.2c-28.17-21.06-72.292-40.977-121.051-54.643-44.4-12.444-87.7-18.452-121.939-16.917l-.178-3.982c34.649-1.552,78.4,4.507,123.193,17.061,49.214,13.794,93.814,33.946,122.362,55.289Z" transform="translate(-335.42 -210.428)" fill="#3f3d56"/><path d="M762.8,419.42a132.644,132.644,0,0,1-11.479,54.156q-.951,2.14-1.981,4.241a133.148,133.148,0,0,1-252.8-58.4q0-4.622.315-9.172.149-2.314.387-4.6A133.136,133.136,0,0,1,762.8,419.42Z" transform="translate(-335.42 -210.428)" fill="#f2f2f2"/><path d="M751.32,473.576q-.951,2.14-1.981,4.241-5.835.634-12.284.921c-3.559.159-7.222.239-10.965.239-32.692,0-72.037-6.035-112.231-17.3-44.794-12.556-85.318-30.117-114.112-49.453q-1.471-.986-2.89-1.977.149-2.314.387-4.6,2.29,1.632,4.723,3.268c28.455,19.1,68.574,36.479,112.968,48.923,39.843,11.168,78.817,17.151,111.135,17.151q5.542,0,10.806-.235Q744.54,474.409,751.32,473.576Z" transform="translate(-335.42 -210.428)" opacity="0.1"/><path d="M726.09,475.789c-32.691,0-72.039-6.035-112.231-17.3-44.793-12.555-85.32-30.117-114.114-49.452-29.4-19.739-43.18-39.188-38.813-54.766s26.251-25.03,61.623-26.615l.178,3.982c-16.518.74-29.98,3.2-40.011,7.3-10.007,4.092-16.047,9.613-17.952,16.412s.385,14.654,6.807,23.351c6.438,8.718,16.663,17.812,30.39,27.03,28.452,19.105,68.572,36.48,112.968,48.924C654.779,465.819,693.75,471.8,726.07,471.8q5.539,0,10.8-.236c16.518-.74,29.98-3.2,40.012-7.3,10.007-4.092,16.047-9.613,17.952-16.411,3.421-12.207-6.918-28.068-29.114-44.661l2.387-3.192c11.422,8.539,19.877,16.956,25.13,25.016,5.632,8.642,7.46,16.687,5.435,23.913-4.366,15.578-26.251,25.029-61.623,26.615C733.493,475.71,729.832,475.789,726.09,475.789Z" transform="translate(-335.42 -210.428)" fill="#3f3d56"/><circle cx="1.526" cy="1.526" r="1.526" transform="translate(296.246 48.802)" fill="#f2f2f2"/><circle cx="2.624" cy="2.624" r="2.624" transform="translate(92.761 112.802)" fill="#ccc"/><circle cx="5.185" cy="5.185" r="5.185" transform="translate(84.607 212.96)" fill="#ccc"/><circle cx="3.455" cy="3.455" r="3.455" transform="translate(397.544 56.025)" fill="#ccc"/><circle cx="5.61" cy="5.61" r="5.61" transform="translate(517.94 197.28)" fill="#ccc"/><circle cx="2.407" cy="2.407" r="2.407" transform="translate(477.274 110.88)" fill="#ccc"/><circle cx="3.755" cy="3.755" r="3.755" transform="translate(183.67 78.609)" fill="#ccc"/><circle cx="2.407" cy="2.407" r="2.407" transform="translate(468.85 189.107)" fill="#ccc"/><circle cx="2.996" cy="2.996" r="2.996" transform="translate(0 197.375)" fill="#ccc"/><circle cx="3.244" cy="3.244" r="3.244" transform="translate(45.264 147.824)" fill="#ccc"/><path d="M256.822,6.4h-6.4V0h-3.435V6.4h-6.4V9.84h6.4v6.4h3.435V9.84h6.4Z" fill="#ccc"/><path d="M405.335,352.829h-4.021V348.81h-2.156v4.019h-4.02v2.157h4.02v4.02h2.156v-4.02h4.021Z" fill="#ccc"/><path d="M498.123,332.252h-3v-3.005H493.5v3.005H490.5v1.614H493.5v3.005h1.614v-3.005h3Z" fill="#ccc"/><circle cx="11.187" cy="11.187" r="11.187" transform="translate(199.121 175.431)" opacity="0.1"/><circle cx="11.187" cy="11.187" r="11.187" transform="translate(322.689 287.811)" opacity="0.1"/><circle cx="11.187" cy="11.187" r="11.187" transform="translate(285.059 192.72)" opacity="0.1"/><circle cx="11.187" cy="11.187" r="11.187" transform="translate(204.715 254.25)" opacity="0.1"/><circle cx="11.187" cy="11.187" r="11.187" transform="translate(345.064 132.716)" opacity="0.1"/><circle cx="11.187" cy="11.187" r="11.187" transform="translate(382.185 208.484)" opacity="0.1"/><circle cx="14.747" cy="14.747" r="14.747" transform="translate(341.504 82.373)" fill="#fff"/><path d="M691.67,286.191a20.849,20.849,0,0,0-20.849,20.849c0,11.515,20.849,49.325,20.849,49.325s20.849-37.811,20.849-49.325A20.849,20.849,0,0,0,691.67,286.191Zm0,31.019a9.662,9.662,0,1,1,9.662-9.662,9.662,9.662,0,0,1-9.662,9.662Z" transform="translate(-335.42 -210.428)" fill="#ff6363"/><circle cx="14.747" cy="14.747" r="14.747" transform="translate(195.504 122.373)" fill="#fff"/><path d="M545.67,326.191a20.849,20.849,0,0,0-20.849,20.849c0,11.515,20.849,49.325,20.849,49.325s20.849-37.811,20.849-49.325A20.849,20.849,0,0,0,545.67,326.191Zm0,31.019a9.662,9.662,0,1,1,9.662-9.662,9.662,9.662,0,0,1-9.662,9.662Z" transform="translate(-335.42 -210.428)" fill="#3f3d56"/><circle cx="14.747" cy="14.747" r="14.747" transform="translate(380.504 156.373)" fill="#fff"/><path d="M730.67,360.191a20.849,20.849,0,0,0-20.849,20.849c0,11.514,20.849,49.325,20.849,49.325s20.849-37.811,20.849-49.325a20.849,20.849,0,0,0-20.849-20.849Zm0,31.019a9.662,9.662,0,1,1,9.662-9.662,9.662,9.662,0,0,1-9.662,9.662Z" transform="translate(-335.42 -210.428)" fill="#ccc"/><circle cx="14.747" cy="14.747" r="14.747" transform="translate(130.504 230.373)" fill="#fff"/><path d="M480.67,434.191a20.849,20.849,0,0,0-20.849,20.849c0,11.515,20.849,49.326,20.849,49.326s20.849-37.811,20.849-49.325a20.849,20.849,0,0,0-20.849-20.849Zm0,31.019a9.662,9.662,0,1,1,9.662-9.662,9.662,9.662,0,0,1-9.662,9.662Z" transform="translate(-335.42 -210.428)" fill="#ff6363"/><ellipse cx="6.76" cy="21.534" rx="6.76" ry="21.534" transform="translate(451.861 334.853) rotate(-39.938)" fill="#2f2e41"/><circle cx="43.067" cy="43.067" r="43.067" transform="translate(381.992 296.475)" fill="#2f2e41"/><rect width="13.084" height="23.442" transform="translate(430.204 373.341)" fill="#2f2e41"/><rect width="13.084" height="23.442" transform="translate(404.037 373.341)" fill="#2f2e41"/><ellipse cx="10.903" cy="4.089" rx="10.903" ry="4.089" transform="translate(421.482 392.966)" fill="#2f2e41"/><ellipse cx="10.903" cy="4.089" rx="10.903" ry="4.089" transform="translate(395.314 392.421)" fill="#2f2e41"/><path d="M746.956,495.833c3.846-15.487,20.821-24.6,37.915-20.356s27.834,20.24,23.989,35.727-16.6,15.537-33.7,11.292S743.111,511.32,746.956,495.833Z" transform="translate(-335.42 -210.428)" fill="#ff6363"/><ellipse cx="6.76" cy="21.534" rx="6.76" ry="21.534" transform="translate(354.2 316.437) rotate(-64.626)" fill="#2f2e41"/><circle cx="14.359" cy="14.359" r="14.359" transform="translate(404.262 316.095)" fill="#fff"/><circle cx="4.786" cy="4.786" r="4.786" transform="translate(407.933 320.521)" fill="#3f3d56"/><path d="M763.048,570.8a9.572,9.572,0,0,1-18.835,3.429h0l0-.018c-.942-5.2,3.08-7.043,8.283-7.985S762.106,565.595,763.048,570.8Z" transform="translate(-335.42 -210.428)" fill="#fff"/><path d="M671.784,458.477a29.9,29.9,0,1,0,1.7,44.155l36.674,30.945a2.755,2.755,0,1,0,3.558-4.208l0,0L677.033,498.42A29.9,29.9,0,0,0,671.784,458.477Zm-2.364,36.964a22.4,22.4,0,1,1-2.674-31.565h0a22.4,22.4,0,0,1,2.673,31.564Z" transform="translate(-335.42 -210.428)" fill="#3f3d56"/><path d="M637.854,498.114a22.4,22.4,0,0,1-3.8-30.113q-.642.647-1.242,1.355a22.4,22.4,0,1,0,34.239,28.891q.6-.709,1.127-1.452a22.4,22.4,0,0,1-30.323,1.319Z" transform="translate(-335.42 -210.428)" opacity="0.3"/><ellipse cx="21.534" cy="6.76" rx="21.534" ry="6.76" transform="matrix(0.357, -0.934, 0.934, 0.357, 127.665, 324.722)" fill="#2f2e41"/><circle cx="43.067" cy="43.067" r="43.067" transform="translate(58.795 296.474)" fill="#2f2e41"/><rect width="13.084" height="23.442" transform="translate(82.236 373.341)" fill="#2f2e41"/><rect width="13.084" height="23.442" transform="translate(108.404 373.341)" fill="#2f2e41"/><ellipse cx="10.903" cy="4.089" rx="10.903" ry="4.089" transform="translate(82.236 392.966)" fill="#2f2e41"/><ellipse cx="10.903" cy="4.089" rx="10.903" ry="4.089" transform="translate(108.404 392.421)" fill="#2f2e41"/><circle cx="14.719" cy="14.719" r="14.719" transform="translate(88.233 313.919)" fill="#fff"/><circle cx="4.906" cy="4.906" r="4.906" transform="translate(98.046 323.732)" fill="#3f3d56"/><path d="M395.505,509.918c-3.477-15.574,7.639-31.31,24.829-35.149s33.944,5.675,37.422,21.249-7.915,21.318-25.1,25.156S398.982,525.492,395.505,509.918Z" transform="translate(-335.42 -210.428)" fill="#ff6363"/><ellipse cx="6.76" cy="21.534" rx="6.76" ry="21.534" transform="translate(31.002 316.437) rotate(-64.626)" fill="#2f2e41"/><path d="M416.127,565.506c0,4.215,10.853,12.539,22.9,12.539s23.335-11.867,23.335-16.082-11.292.818-23.335.818S416.127,561.291,416.127,565.506Z" transform="translate(-335.42 -210.428)" fill="#fff"/><circle cx="43.067" cy="43.067" r="43.067" transform="translate(198.514 374.474)" fill="#2f2e41"/><rect width="13.084" height="23.442" transform="translate(221.956 451.341)" fill="#2f2e41"/><rect width="13.084" height="23.442" transform="translate(248.123 451.341)" fill="#2f2e41"/><ellipse cx="10.903" cy="4.089" rx="10.903" ry="4.089" transform="translate(221.956 470.966)" fill="#2f2e41"/><ellipse cx="10.903" cy="4.089" rx="10.903" ry="4.089" transform="translate(248.123 470.421)" fill="#2f2e41"/><path d="M535.224,587.918c-3.477-15.574,7.639-31.31,24.829-35.149s33.944,5.675,37.422,21.249-7.915,21.318-25.1,25.156S538.7,603.492,535.224,587.918Z" transform="translate(-335.42 -210.428)" fill="#3f3d56"/><path d="M577.174,620.507s3.124-13.746-2.812-13.121-14.058.937-16.245.937-14.683-1.562-16.558,6.561-4.374,18.12.937,24.368c0,0,1.874,27.492,9.06,29.367s26.242,4.061,33.116-5a23.3,23.3,0,0,0,4.061-19.057h-3.124Z" transform="translate(-335.42 -210.428)" fill="#ff6363"/><path d="M545.62,641.438s5.311,2.5,16.245.937v4.686l-16.245-1.25Z" transform="translate(-335.42 -210.428)" opacity="0.1"/><path d="M585.311,657.1l-3.537-1.869,15.73-29.766a7.431,7.431,0,0,0-6.37-10.9l-16.507-.444.107-4,16.508.444a11.432,11.432,0,0,1,9.8,16.769Z" transform="translate(-335.42 -210.428)" fill="#ff6363"/><path d="M547.294,657.1l-15.73-29.766a11.432,11.432,0,0,1,9.8-16.768l16.508-.444.107,4-16.508.444a7.431,7.431,0,0,0-6.37,10.9l15.73,29.766Z" transform="translate(-335.42 -210.428)" fill="#ff6363"/><ellipse cx="7.501" cy="23.892" rx="7.501" ry="23.892" transform="translate(251.054 412.878) rotate(-62.122)" fill="#2f2e41"/></svg>