<svg xmlns="http://www.w3.org/2000/svg" width="567.041" height="384.253" viewBox="0 0 567.041 384.253"><g transform="translate(0 0)"><path d="M981.779,711.272a131.123,131.123,0,0,1,10.852-41.385q2.449-5.472,5.392-10.7a.8.8,0,0,0-1.379-.806,132.942,132.942,0,0,0-14.793,40.81q-1.111,6-1.669,12.083C980.087,712.3,981.685,712.289,981.779,711.272Z" transform="translate(-445.626 -328.532)" fill="#f2f2f2"/><circle cx="10.115" cy="10.115" r="10.115" transform="translate(546.151 312.984)" fill="#f2f2f2"/><path d="M983.636,721.3a85.066,85.066,0,0,1,7.04-26.848q1.589-3.55,3.5-6.943a.518.518,0,0,0-.895-.523,86.244,86.244,0,0,0-9.6,26.475q-.721,3.892-1.083,7.839c-.061.664.975.659,1.036,0Z" transform="translate(-446.447 -338.296)" fill="#f2f2f2"/><circle cx="6.562" cy="6.562" r="6.562" transform="translate(543.674 337.754)" fill="#f2f2f2"/><path d="M975.243,720.88a85.072,85.072,0,0,1-10.962-25.5q-.93-3.776-1.512-7.626a.518.518,0,0,0-1.027.138,86.244,86.244,0,0,0,8.717,26.778q1.826,3.512,3.967,6.847C974.786,722.078,975.6,721.438,975.243,720.88Z" transform="translate(-439.362 -338.491)" fill="#f2f2f2"/><circle cx="6.562" cy="6.562" r="6.562" transform="translate(515.809 337.294)" fill="#f2f2f2"/><path d="M332.643,711.272a131.126,131.126,0,0,0-10.852-41.385q-2.449-5.472-5.392-10.7a.8.8,0,0,1,1.379-.806,132.94,132.94,0,0,1,14.793,40.81q1.111,6,1.669,12.083c.095,1.023-1.5,1.017-1.6,0Z" transform="translate(-220.109 -328.533)" fill="#f2f2f2"/><circle cx="10.115" cy="10.115" r="10.115" transform="translate(82.306 312.984)" fill="#f2f2f2"/><path d="M334.028,721.3a85.067,85.067,0,0,0-7.04-26.848q-1.589-3.55-3.5-6.943a.518.518,0,0,1,.895-.523,86.243,86.243,0,0,1,9.6,26.475q.721,3.892,1.083,7.839c.061.664-.975.659-1.036,0Z" transform="translate(-222.53 -338.296)" fill="#f2f2f2"/><circle cx="6.562" cy="6.562" r="6.562" transform="translate(91.889 337.754)" fill="#f2f2f2"/><path d="M341.417,720.88a85.066,85.066,0,0,0,10.962-25.5q.93-3.776,1.512-7.626a.518.518,0,0,1,1.027.138,86.244,86.244,0,0,1-8.717,26.778q-1.825,3.512-3.967,6.847c-.36.561-1.174-.08-.817-.637Z" transform="translate(-228.611 -338.491)" fill="#f2f2f2"/><circle cx="6.562" cy="6.562" r="6.562" transform="translate(119.754 337.294)" fill="#f2f2f2"/><path d="M895.413,534.134l.158,118.93a8.337,8.337,0,0,1-8.316,8.34l-49.4.072c13.907-26.016,21.781-66.965,21.735-98.529a185.732,185.732,0,0,0-3.778-37.083l31.262-.046A8.337,8.337,0,0,1,895.413,534.134Z" transform="translate(-397.279 -283.628)" fill="#ff6363"/><path d="M776.989,740.158h-487.5a.786.786,0,1,1,0-1.572h487.5a.786.786,0,0,1,0,1.572Z" transform="translate(-210.735 -355.905)" fill="#3f3d56"/><path d="M770.094,494.971l-88.044-.345,8.561-28.484a10.961,10.961,0,0,1,10.435-7.759h.041l50.253.2a10.959,10.959,0,0,1,10.415,7.841Z" transform="translate(-344.353 -260.721)" fill="#3f3d56"/><path d="M885.07,499.033a9.244,9.244,0,0,0-9.244,9.244h18.488a9.244,9.244,0,0,0-9.244-9.244Z" transform="translate(-410.178 -274.53)" fill="#ff6363"/><path d="M802.043,662.582H559.051a11.238,11.238,0,0,1-11.225-11.225v-128.1a11.238,11.238,0,0,1,11.225-11.225H802.043a11.238,11.238,0,0,1,11.225,11.225v128.1A11.238,11.238,0,0,1,802.043,662.582ZM559.051,513.354a9.916,9.916,0,0,0-9.9,9.9v128.1a9.916,9.916,0,0,0,9.9,9.9H802.043a9.916,9.916,0,0,0,9.9-9.9v-128.1a9.916,9.916,0,0,0-9.9-9.9Z" transform="translate(-298.757 -278.946)" fill="#3f3d56"/><path d="M751.068,491.758h-21.13a5.613,5.613,0,1,1,0-11.225h21.13a5.613,5.613,0,1,1,0,11.225Z" transform="translate(-358.714 -268.245)" fill="#fff"/><path d="M723.009,650.4a50.183,50.183,0,1,1,50.183-50.183A50.183,50.183,0,0,1,723.009,650.4Zm0-99.046a48.862,48.862,0,1,0,48.862,48.862A48.862,48.862,0,0,0,723.009,551.354Z" transform="translate(-341.219 -291.854)" fill="#3f3d56"/><path d="M731.841,642.063a33.015,33.015,0,1,1,33.015-33.015A33.015,33.015,0,0,1,731.841,642.063Zm0-64.71a31.695,31.695,0,1,0,31.695,31.695A31.695,31.695,0,0,0,731.841,577.354Z" transform="translate(-350.051 -300.686)" fill="#3f3d56"/><circle cx="25.092" cy="25.092" r="25.092" transform="translate(356.698 283.27)" fill="#ccc"/><path d="M723.44,617.541A16.508,16.508,0,0,1,737.635,601.2a16.508,16.508,0,1,0,0,32.686A16.508,16.508,0,0,1,723.44,617.541Z" transform="translate(-356.837 -309.179)" fill="#fff"/><path d="M897.841,505.2H864.826v-.66a16.508,16.508,0,0,1,33.015,0Zm-31.68-1.321h30.346a15.187,15.187,0,0,0-30.346,0Z" transform="translate(-406.441 -270.793)" fill="#3f3d56"/><path d="M569.429,535.239a6.6,6.6,0,1,1,6.6-6.6A6.6,6.6,0,0,1,569.429,535.239Zm0-11.885a5.282,5.282,0,1,0,5.282,5.282A5.282,5.282,0,0,0,569.429,523.354Z" transform="translate(-303.853 -282.343)" fill="#3f3d56"/><circle cx="3.302" cy="3.302" r="3.302" transform="translate(262.275 242.992)" fill="#ff6363"/><circle cx="3.302" cy="3.302" r="3.302" transform="translate(279.443 242.992)" fill="#ccc"/><circle cx="3.302" cy="3.302" r="3.302" transform="translate(296.611 242.992)" fill="#ccc"/><path d="M595.429,535.239a6.6,6.6,0,1,1,6.6-6.6A6.6,6.6,0,0,1,595.429,535.239Zm0-11.885a5.282,5.282,0,1,0,5.282,5.282A5.282,5.282,0,0,0,595.429,523.354Z" transform="translate(-312.685 -282.343)" fill="#3f3d56"/><path d="M621.429,535.239a6.6,6.6,0,1,1,6.6-6.6A6.6,6.6,0,0,1,621.429,535.239Zm0-11.885a5.282,5.282,0,1,0,5.282,5.282A5.282,5.282,0,0,0,621.429,523.354Z" transform="translate(-321.517 -282.343)" fill="#3f3d56"/><rect width="85.839" height="1.321" transform="translate(249.729 290.45)" fill="#3f3d56"/><rect width="83.707" height="1.321" transform="translate(249.729 317.029)" fill="#3f3d56"/><rect width="85.839" height="1.321" transform="translate(428.011 290.45)" fill="#3f3d56"/><rect width="83.707" height="1.321" transform="translate(429.992 317.029)" fill="#3f3d56"/><path d="M438.981,383.019c-5.355-2.46-8.875-9.493-8.674-16.429s3.851-13.423,8.885-16.731a17.6,17.6,0,0,1,16.652-1.258c5.4,2.3,12.657,2.926,15.9,8.643,2.5,4.393,1.6,14.193-.17,19.078-1.527,4.222-5.262,6.6-8.9,7.932a29.938,29.938,0,0,1-24.769-2" transform="translate(-258.834 -222.911)" fill="#2f2e41"/><path d="M219.42,551.53l-7.7-2.5,6-30.884,11.362,3.7Z" transform="translate(-71.921 -176.011)" fill="#ffb8b8"/><path d="M9.83,0H25.442V9.83H0A9.83,9.83,0,0,1,9.83,0Z" transform="translate(125.667 365.985) rotate(18.021)" fill="#2f2e41"/><path d="M321.6,552.9h-8.1l-3.851-31.224h11.948Z" transform="translate(-105.19 -177.21)" fill="#ffb8b8"/><path d="M301.676,565.457h15.612v9.83H291.846A9.83,9.83,0,0,1,301.676,565.457Z" transform="translate(-99.139 -192.084)" fill="#2f2e41"/><path d="M458.106,631.606c-.049,0-.1,0-.146,0l-8.971-.428a2.975,2.975,0,0,1-2.83-2.927l-1.216-88.739a.99.99,0,0,0-1.866-.448l-47.514,90.092a2.956,2.956,0,0,1-3.184,1.533l-8.928-1.7a2.971,2.971,0,0,1-2.246-3.908l34.62-98.089,2.664-29.016a2.951,2.951,0,0,1,2.6-2.674c10.088-1.239,24.183-9.5,29.775-13a2.936,2.936,0,0,1,2.331-.351,3.009,3.009,0,0,1,1.869,1.482,133.875,133.875,0,0,1,14.709,81.863l-8.727,63.746a2.955,2.955,0,0,1-2.938,2.569Z" transform="translate(-242.099 -268.691)" fill="#2f2e41"/><circle cx="16.218" cy="16.218" r="16.218" transform="translate(175.643 134.488)" fill="#ffb8b8"/><path d="M433.942,486.006l-4.883-34.894a20.5,20.5,0,1,1,40-9c1.391,6.45,4.216,14.3,3.184,22.767h0C465.007,484.949,451.879,491.138,433.942,486.006Z" transform="translate(-258.241 -249.757)" fill="#b3b3b3"/><path d="M461.571,429.726H449.685a2.975,2.975,0,0,1-2.971-2.971v-3.962a2.975,2.975,0,0,1,2.971-2.971h11.885a2.975,2.975,0,0,1,2.971,2.971v3.962A2.975,2.975,0,0,1,461.571,429.726Z" transform="translate(-264.41 -247.622)" fill="#b3b3b3"/><path d="M532.8,502.706a7.094,7.094,0,0,0-5.754-9.23l-37-52.966-10.97,10.845,39.816,48.653a7.132,7.132,0,0,0,13.905,2.7Z" transform="translate(-275.404 -254.65)" fill="#ffb8b8"/><path d="M499.68,454.47l-13.36,8.919a3.181,3.181,0,0,1-4.641-1.286l-6.844-14.479a8.833,8.833,0,1,1,14.722-9.765l10.716,11.832a3.181,3.181,0,0,1-.592,4.78Z" transform="translate(-273.462 -252.407)" fill="#b3b3b3"/><path d="M355.465,424.171a6.948,6.948,0,0,1,.158,1.083l28.365,16.364,6.894-3.969,7.35,9.622-11.522,8.213a5.283,5.283,0,0,1-6.338-.154l-29.249-23.075a6.931,6.931,0,1,1,4.342-8.083Z" transform="translate(-228.766 -247.283)" fill="#ffb8b8"/><path d="M414.348,458.663l-7.127-14.4a3.181,3.181,0,0,1,1.872-4.437l15.239-4.926a8.833,8.833,0,1,1,7.792,15.855l-13.112,9.106a3.181,3.181,0,0,1-4.664-1.2Z" transform="translate(-250.882 -252.437)" fill="#b3b3b3"/><path d="M473.214,351.811a2.683,2.683,0,0,0,2.85-1.591,3.863,3.863,0,0,0-.274-3.392,7.089,7.089,0,0,0-2.493-2.445,8.192,8.192,0,0,0-3.95-1.359,4.927,4.927,0,0,0-3.826,1.452,3.55,3.55,0,0,0-.642,3.914,5.236,5.236,0,0,0,3.05,2.22,17.891,17.891,0,0,0,7.513.987" transform="translate(-270.471 -221.53)" fill="#2f2e41"/><path d="M469.486,384.795c-2.835.133-2.346-5.881-3.234-8.577s-2.11-5.911-4.9-6.427c-2.287-.424-4.353,1.249-6.345,2.449-3.55,2.139-8.145,2.929-11.873,1.116s-5.995-6.655-4.182-10.382a8.5,8.5,0,0,1,5.315-4.187,17.107,17.107,0,0,1,6.908-.332,35.344,35.344,0,0,1,14.451,5.122c3.025,1.9,5.9,4.481,6.8,7.937s1.268,12.853-2.254,13.448Z" transform="translate(-261.557 -226.706)" fill="#2f2e41"/><path d="M473.6,337.349c-2.141-2.714-1.335-6.991,1.161-9.384s6.207-3.138,9.65-2.834a19.559,19.559,0,0,1,15.863,11.407c2.176,4.978,2.158,10.672,4.126,15.737a21.22,21.22,0,0,0,28.664,11.583c3.426-1.579,6.688-4.673,6.492-8.44a20.752,20.752,0,0,1-9.127,22.349c-4.33,2.6-9.458,3.489-14.474,4.1-3.269.4-6.629.692-9.819-.125a17.353,17.353,0,0,1-10.462-8.45,27.468,27.468,0,0,1-3.187-13.3c-.027-3.589.443-7.18.195-10.76s-1.325-7.284-3.92-9.763-6.975-3.295-9.824-1.111c-1.145.878-1.984,2.159-3.273,2.806s-3.325.144-3.412-1.3Z" transform="translate(-273.085 -215.434)" fill="#2f2e41"/><path d="M309,383.6H175.234a4.618,4.618,0,0,1-4.612-4.612V303.645a4.618,4.618,0,0,1,4.612-4.612H309a4.618,4.618,0,0,1,4.612,4.612v75.337A4.618,4.618,0,0,1,309,383.6ZM175.234,300.058a3.592,3.592,0,0,0-3.587,3.587v75.337a3.591,3.591,0,0,0,3.587,3.587H309a3.592,3.592,0,0,0,3.587-3.588V303.645A3.592,3.592,0,0,0,309,300.058Z" transform="translate(-170.622 -206.59)" fill="#3f3d56"/><circle cx="19.127" cy="19.127" r="19.127" transform="translate(29.582 107.073)" fill="#e6e6e6"/><path d="M308.7,374.783l-22.452-38.889a1.6,1.6,0,0,0-2.769,0l-13.7,23.732-20.427-35.38a2.05,2.05,0,0,0-3.551,0l-28.786,49.86a2.05,2.05,0,0,0,1.775,3.075h88.528a1.6,1.6,0,0,0,1.384-2.4Z" transform="translate(-186.288 -214.807)" fill="#ff6363"/><rect width="8.2" height="8.2" transform="translate(9.737 101.668)" fill="#3f3d56"/><path d="M403.416,225.107H298.9a3.608,3.608,0,0,1-3.6-3.6V162.637a3.608,3.608,0,0,1,3.6-3.6H403.416a3.608,3.608,0,0,1,3.6,3.6V221.5A3.608,3.608,0,0,1,403.416,225.107ZM298.9,159.834a2.806,2.806,0,0,0-2.8,2.8V221.5a2.806,2.806,0,0,0,2.8,2.8H403.416a2.806,2.806,0,0,0,2.8-2.8V162.637a2.806,2.806,0,0,0-2.8-2.8Z" transform="translate(-212.973 -159.033)" fill="#ccc"/><circle cx="14.945" cy="14.945" r="14.945" transform="translate(105.436 11.432)" fill="#f2f2f2"/><path d="M403.185,218.221l-17.544-30.386a1.249,1.249,0,0,0-2.164,0l-10.706,18.544-15.961-27.645a1.6,1.6,0,0,0-2.774,0l-22.493,38.959a1.6,1.6,0,0,0,1.387,2.4H402.1a1.249,1.249,0,0,0,1.082-1.874Z" transform="translate(-225.214 -165.453)" fill="#e6e6e6"/><rect width="6.407" height="6.407" transform="translate(89.93 7.208)" fill="#ccc"/></g></svg>