<svg xmlns="http://www.w3.org/2000/svg" width="624.662" height="440.213" viewBox="0 0 624.662 440.213"><circle cx="34.018" cy="34.018" r="34.018" transform="translate(285.009 371.244)" fill="#ff6363"/><path d="M732.126,601.953c19.032-5.716,39.264-11.676,54.358-25.263,13.487-12.142,22.593-30.682,17.005-48.891-5.576-18.172-22.278-30.288-39.522-36.315-9.78-3.418-20.012-5.314-30.24-6.8-11.119-1.619-22.287-2.946-33.449-4.223q-67.8-7.754-136.106-9.474c-22.47-.566-44.936-.552-67.41-.226-20.07.291-41.208.284-59.827-8.246-14.479-6.633-27.62-18.7-31.654-34.561-4.657-18.307,3.933-36.95,16.255-50.208,6.495-6.989,14.086-12.871,21.917-18.279,8.5-5.868,17.287-11.32,26.269-16.409a365.807,365.807,0,0,1,55.292-25.49c9.426-3.427,18.991-6.384,28.64-9.112a245.072,245.072,0,0,0,24.194-7.748c15.222-6.067,29.7-16.343,33.571-33.191,3.668-15.967-2.517-33.3-13.36-45.164-12.544-13.723-31.459-19.739-49.593-20.713-20.358-1.093-40.247,4-59.382,10.469-20.409,6.9-40.377,14.827-61.217,20.413a411.883,411.883,0,0,1-63,11.712c-10.414,1.109-21.143,2.361-31.62,1.512-8.78-.711-17.515-3.294-23.986-9.525-5.548-5.343-8.853-12.686-7.717-20.435.206-1.407,2.344-.809,2.139.59-1.383,9.433,5.029,18.125,12.93,22.577,9.132,5.146,20.244,5.153,30.411,4.564a397.744,397.744,0,0,0,65.459-9.463c21.145-4.83,41.535-11.734,61.9-19.109,19.343-7,39.119-13.841,59.784-15.358,17.931-1.316,36.793,1.3,52.414,10.666a57.982,57.982,0,0,1,27.04,37.729c3.143,15.4-1.21,30.9-12.868,41.648-12.07,11.127-28.62,15.884-44.044,20.266a403.52,403.52,0,0,0-57.234,20.487,359.291,359.291,0,0,0-53.838,30.267c-16.452,11.243-32.688,25.389-37.891,45.445a41.865,41.865,0,0,0,2.079,28.076,51.306,51.306,0,0,0,16.463,19.537c16.507,12.146,37.311,14.64,57.25,14.888,22.394.279,44.789-.477,67.19-.109q68.479,1.124,136.679,8.336,17.089,1.809,34.135,4c10.221,1.313,20.477,2.618,30.527,4.951,17.869,4.147,35.256,12.122,46.362,27.272A43.126,43.126,0,0,1,802.1,560.2c-8.528,16.78-24.5,27.453-41.468,34.465a294.23,294.23,0,0,1-27.918,9.426,1.11,1.11,0,0,1-.59-2.139Z" transform="translate(-209.871 -164.584)" fill="#f2f2f2"/><circle cx="17.749" cy="17.749" r="17.749" transform="translate(75.353 33.649)" fill="#f2f2f2"/><circle cx="17.749" cy="17.749" r="17.749" transform="translate(198.484 67.297)" fill="#f2f2f2"/><circle cx="17.749" cy="17.749" r="17.749" transform="translate(302.758)" fill="#f2f2f2"/><circle cx="17.749" cy="17.749" r="17.749" transform="translate(367.837 75.432)" fill="#f2f2f2"/><circle cx="17.749" cy="17.749" r="17.749" transform="translate(279.833 162.696)" fill="#f2f2f2"/><circle cx="17.749" cy="17.749" r="17.749" transform="translate(168.164 204.85)" fill="#f2f2f2"/><circle cx="17.749" cy="17.749" r="17.749" transform="translate(286.488 270.668)" fill="#f2f2f2"/><circle cx="17.749" cy="17.749" r="17.749" transform="translate(413.687 307.644)" fill="#f2f2f2"/><circle cx="17.749" cy="17.749" r="17.749" transform="translate(562.333 299.509)" fill="#f2f2f2"/><path d="M569.8,220.372c-53.166.376-96.7,43.58-97.453,96.742-.007.491-.01,3.942-.01,8.456a24.957,24.957,0,0,0,24.953,24.956h0a24.972,24.972,0,0,0,24.967-24.989c0-3.076,0-5.2,0-5.332a47.33,47.33,0,1,1,72.859,39.845l.009.01S559.6,382.928,548.776,414.3l.009,0a69.523,69.523,0,0,0-2.865,19.8c0,2.755.162,26.861.475,46.426a25.726,25.726,0,0,0,25.728,25.308h0a25.733,25.733,0,0,0,25.731-25.891c-.109-17.918-.167-38.782-.167-40.3,0-19.261,18.581-38.452,33.844-50.966a102.649,102.649,0,0,0,35.3-56.2,64.165,64.165,0,0,0,1.848-13.928,98.173,98.173,0,0,0-98.882-98.17Z" transform="translate(-254.417 -170.081)" fill="#ff6363"/><path d="M801.446,747.011h-622.9a.881.881,0,0,1,0-1.761h622.9a.881.881,0,1,1,0,1.761Z" transform="translate(-177.662 -306.797)" fill="#3f3d56"/><circle cx="22.186" cy="22.186" r="22.186" transform="translate(442.57 157.517)" fill="#2f2e41"/><path d="M568.3,569.812h-9.066l-4.314-34.971H568.3Z" transform="translate(-144.541 -139.311)" fill="#a0616a"/><path d="M548.118,578.626H565.6v11.009H537.109A11.009,11.009,0,0,1,548.118,578.626Z" transform="translate(-139.901 -150.715)" fill="#2f2e41"/><path d="M663.3,569.812h-9.066l-4.314-34.971H663.3Z" transform="translate(-169.285 -139.311)" fill="#a0616a"/><path d="M643.118,578.626H660.6v11.009H632.109A11.009,11.009,0,0,1,643.118,578.626Z" transform="translate(-164.646 -150.715)" fill="#2f2e41"/><circle cx="18.164" cy="18.164" r="18.164" transform="translate(443.221 165.691)" fill="#a0616a"/><path d="M793.318,486.519l8.127-18.673a23.208,23.208,0,0,0-5.14-26.327,23.57,23.57,0,0,0-2.271-1.975,22.877,22.877,0,0,0-14.043-4.859,23.8,23.8,0,0,0-9.91,2.2c-.266.118-.525.244-.792.37-.51.244-1.013.51-1.5.784a23.427,23.427,0,0,0-11.611,17.66l-3.587,30.054c-.9,2.359-33.086,87.553-21.831,152.594a3.3,3.3,0,0,0,2.825,2.714L745,642.618a3.325,3.325,0,0,0,3.7-2.611l19.146-91.265a2.591,2.591,0,0,1,5.029-.17l27.052,95.976a3.307,3.307,0,0,0,3.187,2.426,3.792,3.792,0,0,0,.643-.059l13.94-2.684a3.307,3.307,0,0,0,2.685-3.557C818.336,617.829,807.45,503.4,793.318,486.519Z" transform="translate(-321.107 -225.904)" fill="#2f2e41"/><path d="M706.084,419.074a7.437,7.437,0,0,0,7.835,8.285l10.153,24.4,7.68-11.385-10.819-21.424a7.477,7.477,0,0,0-14.849.125Z" transform="translate(-315.288 -220.104)" fill="#a0616a"/><path d="M797.227,527.456a7.437,7.437,0,0,0,6.232-9.55l21.362-15.558-12.861-4.816-18.314,15.513a7.477,7.477,0,0,0,3.581,14.411Z" transform="translate(-336.85 -242.274)" fill="#a0616a"/><path d="M743.855,474.79a12.612,12.612,0,0,1-2.439-.241,12.058,12.058,0,0,1-8.836-7.111l-14.224-17.344a3.328,3.328,0,0,1,.822-4.941l10.12-6.264a3.328,3.328,0,0,1,4.6,1.1l10.025,16.517,19.2-14.189a7.189,7.189,0,0,1,8.364,11.509l-19.163,17.48a12.02,12.02,0,0,1-8.465,3.483Z" transform="translate(-318.301 -226.869)" fill="#2f2e41"/><path d="M818.911,502.785h-.078a3.334,3.334,0,0,1-2.448-1.161l-9-10.5a3.328,3.328,0,0,1,.681-4.935l16.848-11.232-15.263-18.35a7.189,7.189,0,0,1,11.01-9.009l18.55,18.128a12.221,12.221,0,0,1-2.718,19.923L821.333,501.74A3.334,3.334,0,0,1,818.911,502.785Z" transform="translate(-341.479 -228.78)" fill="#2f2e41"/><path d="M791.768,460.582a3.426,3.426,0,0,1-.431-.027,3.3,3.3,0,0,1-2.745-2.27l-6.761-20.728a2.28,2.28,0,0,1,1.179-2.754l.219-.1c.2-.095.4-.188.6-.278a24.088,24.088,0,0,1,10.06-2.236A23.167,23.167,0,0,1,806.578,436a2.315,2.315,0,0,1,.667,3.176l-12.683,19.869A3.3,3.3,0,0,1,791.768,460.582Z" transform="translate(-335.002 -225.253)" fill="#e6e6e6"/><circle cx="7.26" cy="7.26" r="7.26" transform="translate(474.988 155.278)" fill="#2f2e41"/><path d="M789.339,361.365h0a19.228,19.228,0,0,0-19.228,19.228v8.135h10.005l4.785-8.135,1.436,8.135H816.7l-8.135-8.135a19.228,19.228,0,0,0-19.228-19.228Z" transform="translate(-331.978 -206.807)" fill="#2f2e41"/><path d="M834.809,362.687A11.2,11.2,0,0,1,847,355c4.626.773,8.284,4.492,10.464,8.646s3.186,8.8,4.651,13.258,3.543,8.936,7.242,11.821,9.375,3.667,13.008.7a14.878,14.878,0,0,1-27.715,5.311c-1.917-3.411-2.412-7.408-2.98-11.279s-1.307-7.876-3.6-11.049-6.573-5.245-10.208-3.8Z" transform="translate(-348.83 -205.121)" fill="#2f2e41"/><path d="M504.215,353.035h0a24.957,24.957,0,0,1-24.955-24.953c0-4.517,0-7.968.01-8.459a97.253,97.253,0,0,1,11.358-44.3,97.472,97.472,0,0,0-18.754,56.137c-.007.491-.01,3.942-.01,8.456a24.957,24.957,0,0,0,24.953,24.956h0a24.976,24.976,0,0,0,24.026-18.186,24.865,24.865,0,0,1-16.631,6.353Z" transform="translate(-254.294 -184.394)" fill="#3f3d56"/><path d="M592.931,287.291a47.333,47.333,0,0,1,41.162,66.124,47.328,47.328,0,1,0-79.445-49.538,47.234,47.234,0,0,1,38.283-16.586Z" transform="translate(-275.856 -184.416)" fill="#3f3d56"/><path d="M604.963,554.861h0a25.727,25.727,0,0,1-25.728-25.314c-.313-19.559-.475-43.665-.475-46.42a69.515,69.515,0,0,1,2.865-19.8l-.009,0a70.3,70.3,0,0,1,4.063-9.393,81.385,81.385,0,0,0-11.458,21.225l.009,0a69.521,69.521,0,0,0-2.865,19.8c0,2.755.162,26.861.475,46.426a25.726,25.726,0,0,0,25.728,25.308h0a25.736,25.736,0,0,0,24.7-18.52A25.632,25.632,0,0,1,604.963,554.861Z" transform="translate(-280.21 -230.919)" fill="#3f3d56"/><path d="M126.54,570.268h9.066L139.92,535.3H126.538Z" transform="translate(-32.959 -139.429)" fill="#ffb8b8"/><path d="M0,0H28.495V11.009H11.009A11.009,11.009,0,0,1,0,0Z" transform="translate(120.13 439.257) rotate(179.997)" fill="#2f2e41"/><path d="M82.54,570.268h9.066L95.92,535.3H82.538Z" transform="translate(-21.499 -139.429)" fill="#ffb8b8"/><path d="M0,0H28.495V11.009H11.009A11.009,11.009,0,0,1,0,0Z" transform="translate(87.591 439.257) rotate(179.997)" fill="#2f2e41"/><path d="M266.644,677.677l-8.856-.466a3.456,3.456,0,0,1-3.268-3.673l10.585-117.19L313.849,569.5l4.7-1.281L303.859,671.964a3.473,3.473,0,0,1-3.223,2.917l-9.546.445a3.457,3.457,0,0,1-3.647-3.547l1.73-62.266a1.152,1.152,0,0,0-2.28-.266L270.21,674.927a3.436,3.436,0,0,1-3.379,2.755C266.769,677.683,266.707,677.681,266.644,677.677Z" transform="translate(-197.68 -257.594)" fill="#2f2e41"/><circle cx="18.164" cy="18.164" r="18.164" transform="translate(77.045 166.54)" fill="#ffb8b8"/><path d="M265.5,464.151l2,43.091.722,15.677a3.433,3.433,0,0,0,2.274,3.088l46.839,16.967a3.31,3.31,0,0,0,1.183.207,3.434,3.434,0,0,0,3.449-3.541l-1.92-77.478a27.311,27.311,0,0,0-22.736-26.384c-.453-.069-.914-.138-1.375-.2a26.808,26.808,0,0,0-21.568,6.982,27.537,27.537,0,0,0-8.864,21.591Z" transform="translate(-200.533 -226.084)" fill="#ccc"/><path d="M358.862,557.541a7.442,7.442,0,0,1-3.97-11.26L339.008,525.16l13.707-.848L365.7,544.5a7.477,7.477,0,0,1-6.835,13.043Z" transform="translate(-219.688 -249.249)" fill="#ffb8b8"/><path d="M341.409,523.61a3.435,3.435,0,0,1-1.879-1.862L315.6,464.733a9.217,9.217,0,1,1,17-7.134l23.93,57.014a3.46,3.46,0,0,1-1.849,4.525L344.055,523.6a3.432,3.432,0,0,1-2.646.013Z" transform="translate(-213.403 -230.401)" fill="#ccc"/><path d="M298.364,529.949l22.984-44.009a3.608,3.608,0,0,1,4.862-1.526l33.361,17.423A3.608,3.608,0,0,1,361.1,506.7l-22.984,44.009a3.608,3.608,0,0,1-4.862,1.526L299.89,534.812A3.608,3.608,0,0,1,298.364,529.949Z" transform="translate(-208.995 -238.751)" fill="#3f3d56"/><path d="M307.54,512.636a7.442,7.442,0,0,0-11.475-3.3l-22.022-14.609L274,508.461l20.918,11.767a7.477,7.477,0,0,0,12.617-7.593Z" transform="translate(-202.757 -241.544)" fill="#ffb8b8"/><path d="M272.314,502.522l-18-14.257a12.693,12.693,0,0,1-5.786-20.067l16.342-21.416a7.466,7.466,0,0,1,12.668,7.606l-12.93,21.151,19,9.013a3.456,3.456,0,0,1,1.441,4.969l-7.67,12.139a3.462,3.462,0,0,1-2.342,1.561l-.057.009A3.472,3.472,0,0,1,272.314,502.522Z" transform="translate(-195.375 -228.342)" fill="#ccc"/><path d="M284.7,405.279a1.579,1.579,0,0,1,1.373-2.085,3.646,3.646,0,0,1,2.571,1.268,10.234,10.234,0,0,0,2.271,1.95,1.954,1.954,0,0,0,2.571-.465,3.576,3.576,0,0,0-.137-2.776,27.294,27.294,0,0,1-1.205-7.225c-.082-2.737.3-5.592,1.819-7.727,1.955-2.755,5.451-3.8,8.76-3.724s6.564,1.1,9.841,1.743c1.131.223,2.461.337,3.218-.54.8-.932.509-2.441.167-3.7-.888-3.267-1.83-6.644-3.894-9.283a13.976,13.976,0,0,0-8.919-5.022,21.4,21.4,0,0,0-9.956,1.13,26.694,26.694,0,0,0-13.077,9.11,21.621,21.621,0,0,0-4.125,15.974,19.721,19.721,0,0,0,7.311,12.465Z" transform="translate(-203.216 -208.413)" fill="#2f2e41"/><path d="M589.557,716.528a34.014,34.014,0,0,1-12.624-52.868A34.016,34.016,0,1,0,623.2,712.812,34,34,0,0,1,589.557,716.528Z" transform="translate(-278.025 -285.546)" fill="#3f3d56"/></svg>